<?xml version="1.0" encoding="UTF-8"?>
<svg width="144px" height="144px" viewBox="0 0 144 144" version="1.1" xmlns="http://www.w3.org/2000/svg" xmlns:xlink="http://www.w3.org/1999/xlink">
  <title>Snoo</title>
  <defs></defs>
  <g id="Page-1" stroke="none" stroke-width="1" fill="none" fill-rule="evenodd">
    <g id="Ads-Page" transform="translate(-648.000000, -175.000000)">
      <g id="Join-The-Conversation" transform="translate(435.000000, 175.000000)">
        <g id="snoo-logo" transform="translate(213.000000, 0.000000)">
          <path d="M144,72 C144,111.7647 111.7647,144 72,144 C32.2353,144 0,111.7647 0,72 C0,32.2353 32.2353,0 72,0 C111.7647,0 144,32.2353 144,72" id="Fill-1" fill="#FF4500"></path>
          <path d="M88.49997,87.00129 C84.36447,87.00129 81.00027,83.63709 81.00027,79.50159 C81.00027,75.36519 84.36447,72.00009 88.49997,72.00009 C92.63547,72.00009 95.99967,75.36519 95.99967,79.50159 C95.99967,83.63709 92.63547,87.00129 88.49997,87.00129 M89.82027,99.31869 C84.70197,104.43069 74.89287,104.82759 72.00837,104.82759 C69.12387,104.82759 59.31387,104.43069 54.20187,99.31779 C53.44317,98.55909 53.44317,97.32789 54.20187,96.56919 C54.96057,95.81049 56.19177,95.81049 56.95047,96.56919 C60.17697,99.79569 67.07907,100.94049 72.00837,100.94049 C76.93857,100.94049 83.84157,99.79569 87.07347,96.56829 C87.83397,95.81049 89.06427,95.81139 89.82207,96.57009 C90.58077,97.32969 90.57987,98.55999 89.82027,99.31869 M47.99997,79.50069 C47.99997,75.36519 51.36597,72.00009 55.50327,72.00009 C59.63697,72.00009 63.00027,75.36519 63.00027,79.50069 C63.00027,83.63529 59.63697,86.99949 55.50327,86.99949 C51.36597,86.99949 47.99997,83.63529 47.99997,79.50069 M119.98827,72.00009 C119.98827,66.20139 115.28757,61.49979 109.48797,61.49979 C106.65747,61.49979 104.09427,62.62569 102.20607,64.44639 C95.02857,59.26689 85.14027,55.92249 74.12607,55.53729 L78.90867,33.03459 L94.53627,36.35649 C94.72617,40.32909 97.97967,43.49979 101.99997,43.49979 C106.14177,43.49979 109.49967,40.14189 109.49967,36.00009 C109.49967,31.85829 106.14177,28.50039 101.99997,28.50039 C99.05337,28.50039 96.52977,30.21489 95.30397,32.68629 L77.85387,28.97649 C77.36877,28.87119 76.86027,28.96659 76.44357,29.23839 C76.02597,29.50929 75.73347,29.93499 75.63087,30.42099 L70.38207,55.11429 C70.35237,55.25469 70.37577,55.38969 70.37757,55.52829 C59.16627,55.82349 49.08537,59.17689 41.79627,64.42749 C39.90987,62.61759 37.35567,61.49979 34.53507,61.49979 C28.73637,61.49979 24.03477,66.20139 24.03477,72.00009 C24.03477,76.26699 26.58447,79.93089 30.23847,81.57429 C30.07737,82.61739 29.98827,83.67669 29.98827,84.75039 C29.98827,100.90449 48.79197,114.00039 71.98857,114.00039 C95.18427,114.00039 113.98797,100.90449 113.98797,84.75039 C113.98797,83.68389 113.90157,82.63179 113.74137,81.59499 C117.41967,79.96149 119.98827,76.28409 119.98827,72.00009" id="Fill-3" fill="#FFFFFF"></path>
        </g>
      </g>
    </g>
  </g>
</svg>
