<?xml version="1.0" encoding="utf-8"?>
<!-- Generator: Adobe Illustrator 21.1.0, SVG Export Plug-In . SVG Version: 6.00 Build 0)  -->
<svg version="1.1" id="Layer_1" xmlns="http://www.w3.org/2000/svg" xmlns:xlink="http://www.w3.org/1999/xlink" x="0px" y="0px"
	 viewBox="0 0 100.4 100.4" style="enable-background:new 0 0 100.4 100.4;" xml:space="preserve">
<style type="text/css">
	.st0{fill:#4753FF;}
	.st1{fill:none;}
	.st2{fill:none;stroke:#4753FF;stroke-miterlimit:10;}
</style>
<g>
	<path class="st0" d="M50.3,49.7c-12.2,0-22.1,9.9-22.1,22.1c0,0.5,0.4,0.9,0.9,0.9h42.4c0.5,0,0.9-0.4,0.9-0.9
		C72.4,59.5,62.4,49.7,50.3,49.7z M51.3,58.1l1.9,12.8h-5.9l1.9-12.8C49.1,58.1,51.3,58.1,51.3,58.1z M52.6,51.6v4.6h-4.9v-4.6
		c0.8-0.1,1.7-0.2,2.6-0.2C51.1,51.5,51.8,51.6,52.6,51.6z M45.9,51.9v5.2c0,0.5,0.4,0.9,0.9,0.9h0.4l-1.9,12.8H29.9
		C30.4,61.6,37,53.9,45.9,51.9z M55.1,70.8L53.2,58h0.3c0.5,0,0.9-0.4,0.9-0.9v-5.2c8.9,1.9,15.7,9.6,16.2,18.9
		C70.5,70.8,55.1,70.8,55.1,70.8z"/>
	<path class="st0" d="M49.9,47.2c7,0,12.7-5.7,12.7-12.7s-5.7-12.7-12.7-12.7c-7,0-12.7,5.7-12.7,12.7
		C37.1,41.5,42.9,47.2,49.9,47.2z M49.9,23.6c6,0,10.9,4.9,10.9,10.9s-4.9,10.9-10.9,10.9S39,40.5,39,34.5S43.9,23.6,49.9,23.6z"/>
	<path class="st0" d="M47,36.2c1.1,0,1.9-0.8,2-1.9h1.9c0.1,1,0.9,1.9,2,1.9h3.9c1.1,0,2-0.9,2-2v-2.1c0-1.1-0.9-2-2-2h-3.9
		c-1.1,0-2,0.9-2,2v0.4h-1.9v-0.4c0-1.1-0.9-2-2-2h-3.9c-1.1,0-2,0.9-2,2v2.1c0,1.1,0.9,2,2,2C43.1,36.2,47,36.2,47,36.2z
		 M52.6,32.1c0-0.1,0.1-0.2,0.2-0.2h3.9c0.1,0,0.2,0.1,0.2,0.2v2.1c0,0.1-0.1,0.2-0.2,0.2h-3.9c-0.1,0-0.2-0.1-0.2-0.2V32.1z
		 M42.8,34.2V32c0-0.1,0.1-0.2,0.2-0.2h3.9c0.1,0,0.2,0.1,0.2,0.2v2.1c0,0.1-0.1,0.2-0.2,0.2H43C42.9,34.3,42.8,34.2,42.8,34.2z"/>
</g>
</svg>
