<?xml version="1.0" encoding="utf-8"?>
<!-- Generator: Adobe Illustrator 21.1.0, SVG Export Plug-In . SVG Version: 6.00 Build 0)  -->
<svg version="1.1" id="Layer_1" xmlns="http://www.w3.org/2000/svg" xmlns:xlink="http://www.w3.org/1999/xlink" x="0px" y="0px"
	 viewBox="0 0 100.4 100.4" style="enable-background:new 0 0 100.4 100.4;" xml:space="preserve">
<style type="text/css">
	.st0{fill:#4753FF;}
	.st1{fill:none;}
	.st2{fill:none;stroke:#4753FF;stroke-miterlimit:10;}
</style>
<g>
	<path class="st0" d="M75.3,50.5h-7.5V44h4.3v2.2c0,0.5,0.4,0.9,0.9,0.9c0.5,0,0.9-0.4,0.9-0.9v-6c0-0.5-0.4-0.9-0.9-0.9
		c-0.5,0-0.9,0.4-0.9,0.9v2.1h-4.3v-6.7c0-0.1,0-0.1,0-0.2l0,0c0-0.1,0-0.2-0.1-0.2c0,0,0,0,0-0.1c0-0.1-0.1-0.1-0.1-0.2l0,0
		L55.9,23.3l0,0l0,0l0,0c-0.1-0.1-0.1-0.1-0.2-0.2c0,0,0,0-0.1,0S55.4,23,55.4,23l0,0c-0.1,0-0.1,0-0.2,0H33.3
		c-0.5,0-0.9,0.4-0.9,0.9v18.4h-4.3v-2.1c0-0.5-0.4-0.9-0.9-0.9c-0.5,0-0.9,0.4-0.9,0.9v6c0,0.5,0.4,0.9,0.9,0.9
		c0.5,0,0.9-0.4,0.9-0.9v-2.1h4.3v6.5H25c-0.5,0-0.9,0.4-0.9,0.9v22.9c0,0.5,0.4,0.9,0.9,0.9h50.3c0.5,0,0.9-0.4,0.9-0.9v-23
		C76.2,50.9,75.8,50.5,75.3,50.5z M56.1,26l8.6,8.6h-8.6C56.1,34.7,56.1,26,56.1,26z M34.2,24.8h20.2v10.7c0,0.5,0.4,0.9,0.9,0.9
		h10.8v14H34.2V24.8z M74.3,73.4H25.8V52.2h48.6V73.4z"/>
	<path class="st0" d="M61.6,59.8h4.6c0.5,0,0.9-0.4,0.9-0.9c0-0.4-0.4-0.9-0.9-0.9h-4.6c-0.5,0-0.9,0.4-0.9,0.9
		C60.7,59.3,61,59.8,61.6,59.8z"/>
	<path class="st0" d="M34.1,59.8h4.6c0.5,0,0.9-0.4,0.9-0.9c0-0.4-0.4-0.9-0.9-0.9h-4.6c-0.5,0-0.9,0.4-0.9,0.9
		C33.2,59.3,33.6,59.8,34.1,59.8z"/>
	<path class="st0" d="M43.3,59.8h4.6c0.5,0,0.9-0.4,0.9-0.9c0-0.4-0.4-0.9-0.9-0.9h-4.6c-0.5,0-0.9,0.4-0.9,0.9
		C42.4,59.3,42.7,59.8,43.3,59.8z"/>
	<path class="st0" d="M52.4,59.8H57c0.5,0,0.9-0.4,0.9-0.9c0-0.4-0.4-0.9-0.9-0.9h-4.6c-0.5,0-0.9,0.4-0.9,0.9
		C51.5,59.3,51.9,59.8,52.4,59.8z"/>
	<path class="st0" d="M43.3,66.4h-4.6c-0.5,0-0.9,0.4-0.9,0.9c0,0.4,0.4,0.9,0.9,0.9h4.6c0.5,0,0.9-0.4,0.9-0.9
		C44.2,66.9,43.7,66.4,43.3,66.4z"/>
	<path class="st0" d="M52.4,66.4h-4.6c-0.5,0-0.9,0.4-0.9,0.9c0,0.4,0.4,0.9,0.9,0.9h4.6c0.5,0,0.9-0.4,0.9-0.9
		C53.3,66.9,52.9,66.4,52.4,66.4z"/>
	<path class="st0" d="M61.6,66.4h-4.6c-0.5,0-0.9,0.4-0.9,0.9c0,0.4,0.4,0.9,0.9,0.9h4.6c0.5,0,0.9-0.4,0.9-0.9
		C62.5,66.9,62,66.4,61.6,66.4z"/>
</g>
</svg>
