<?xml version="1.0" encoding="utf-8"?>
<!-- Generator: Adobe Illustrator 21.1.0, SVG Export Plug-In . SVG Version: 6.00 Build 0)  -->
<svg version="1.1" id="Layer_1" xmlns="http://www.w3.org/2000/svg" xmlns:xlink="http://www.w3.org/1999/xlink" x="0px" y="0px"
	 viewBox="0 0 100.4 100.4" style="enable-background:new 0 0 100.4 100.4;" xml:space="preserve">
<style type="text/css">
	.st0{fill:#4753FF;}
	.st1{fill:none;}
	.st2{fill:none;stroke:#4753FF;stroke-miterlimit:10;}
</style>
<g>
	<path class="st0" d="M36,62.8c0,3,2.5,5.6,5.6,5.6c3,0,5.6-2.5,5.6-5.6c0-3-2.5-5.6-5.6-5.6S36,59.7,36,62.8z M45.3,62.8
		c0,2-1.7,3.7-3.7,3.7s-3.7-1.7-3.7-3.7s1.7-3.7,3.7-3.7C43.6,59.1,45.3,60.8,45.3,62.8z"/>
	<path class="st0" d="M79.8,42c-0.4-0.4-1-0.3-1.3,0.1L65.3,56.9l-6.8-6.8c-0.4-0.4-1-0.4-1.3,0c-0.4,0.4-0.4,1,0,1.3l7.5,7.5
		c0.2,0.2,0.4,0.3,0.6,0.3l0,0c0.3,0,0.4-0.1,0.6-0.3l14-15.6C80.2,42.9,80.2,42.4,79.8,42z"/>
	<path class="st0" d="M65.6,61.5c-0.5,0-0.9,0.4-0.9,0.9v9.1H32.4V28.9h32.3V48c0,0.5,0.4,0.9,0.9,0.9c0.4,0,0.9-0.4,0.9-0.9V28
		c0-0.5-0.4-0.9-0.9-0.9H31.5c-0.5,0-0.9,0.4-0.9,0.9v44.4c0,0.5,0.4,0.9,0.9,0.9h34.1c0.5,0,0.9-0.4,0.9-0.9v-10
		C66.5,61.9,66.2,61.5,65.6,61.5z"/>
	<path class="st0" d="M55,39.4c0.5,0,0.9-0.4,0.9-0.9c0-0.4-0.4-0.9-0.9-0.9H36.6c-0.5,0-0.9,0.4-0.9,0.9c0,0.4,0.4,0.9,0.9,0.9H55z
		"/>
	<path class="st0" d="M56.1,46.6c0-0.5-0.4-0.9-0.9-0.9H36.9c-0.5,0-0.9,0.4-0.9,0.9s0.4,0.9,0.9,0.9h18.3
		C55.7,47.4,56.1,47.1,56.1,46.6z"/>
</g>
</svg>
