<?xml version="1.0" encoding="utf-8"?>
<!-- Generator: Adobe Illustrator 21.1.0, SVG Export Plug-In . SVG Version: 6.00 Build 0)  -->
<svg version="1.1" id="Layer_1" xmlns="http://www.w3.org/2000/svg" xmlns:xlink="http://www.w3.org/1999/xlink" x="0px" y="0px"
	 viewBox="0 0 100.4 100.4" style="enable-background:new 0 0 100.4 100.4;" xml:space="preserve">
<style type="text/css">
	.st0{fill:#4753FF;}
	.st1{fill:none;}
	.st2{fill:none;stroke:#4753FF;stroke-miterlimit:10;}
</style>
<g>
	<g>
		<path class="st0" d="M76,67.1H24.4c-0.5,0-0.9-0.4-0.9-0.9v-32c0-0.5,0.4-0.9,0.9-0.9H76c0.5,0,0.9,0.4,0.9,0.9v32
			C77,66.8,76.5,67.1,76,67.1z M25.4,65.4h49.7V35.2H25.4C25.4,35.2,25.4,65.4,25.4,65.4z"/>
	</g>
	<g>
		<path class="st0" d="M50.2,58.9c-0.3,0-0.4-0.1-0.6-0.3L23.9,34.9c-0.4-0.4-0.4-0.9-0.1-1.3c0.4-0.4,0.9-0.4,1.3-0.1l25.1,23.1
			l25.1-23.1c0.4-0.4,1-0.4,1.3,0.1c0.4,0.4,0.4,1-0.1,1.3L50.9,58.6C50.7,58.8,50.4,58.9,50.2,58.9z"/>
	</g>
	<g>
		<path class="st0" d="M24.4,67.1c-0.3,0-0.5-0.1-0.7-0.3c-0.4-0.4-0.4-1,0.1-1.3l17.4-16c0.4-0.4,1-0.4,1.3,0.1
			c0.4,0.4,0.4,1-0.1,1.3L25,67C24.9,67.1,24.7,67.1,24.4,67.1z"/>
	</g>
	<path class="st0" d="M59.8,50.2l16.8,15.4c0.4,0.4,0.4,1,0.1,1.3c-0.2,0.2-0.4,0.3-0.7,0.3c-0.3,0-0.4-0.1-0.6-0.3L58,50.9"/>
	<line class="st1" x1="59.4" y1="49.7" x2="59.8" y2="50.2"/>
</g>
</svg>
